<svg viewBox="0 0 330 55" xmlns="http://www.w3.org/2000/svg"><defs><linearGradient x1="50%" y1="0%" x2="50%" y2="100%" id="a"><stop stop-color="#E65C60" offset="0%"/><stop stop-color="#CB272C" offset="100%"/></linearGradient><filter x="-50%" y="-50%" width="200%" height="200%" filterUnits="objectBoundingBox" id="b"><feOffset dy="1" in="SourceAlpha" result="shadowOffsetOuter1"/><feGaussianBlur stdDeviation="1" in="shadowOffsetOuter1" result="shadowBlurOuter1"/><feColorMatrix values="0 0 0 0 0 0 0 0 0 0 0 0 0 0 0 0 0 0 0.14 0" in="shadowBlurOuter1" result="shadowMatrixOuter1"/><feOffset dy="-1" in="SourceAlpha" result="shadowOffsetInner1"/><feGaussianBlur in="shadowOffsetInner1" result="shadowBlurInner1"/><feComposite in="shadowBlurInner1" in2="SourceAlpha" operator="arithmetic" k2="-1" k3="1" result="shadowInnerInner1"/><feColorMatrix values="0 0 0 0 0 0 0 0 0 0 0 0 0 0 0 0 0 0 0.105 0" in="shadowInnerInner1" result="shadowMatrixInner1"/><feMerge><feMergeNode in="shadowMatrixOuter1"/><feMergeNode in="SourceGraphic"/><feMergeNode in="shadowMatrixInner1"/></feMerge></filter><filter x="-50%" y="-50%" width="200%" height="200%" filterUnits="objectBoundingBox" id="c"><feOffset dy="1" in="SourceAlpha" result="shadowOffsetOuter1"/><feGaussianBlur stdDeviation="1" in="shadowOffsetOuter1" result="shadowBlurOuter1"/><feColorMatrix values="0 0 0 0 0 0 0 0 0 0 0 0 0 0 0 0 0 0 0.14 0" in="shadowBlurOuter1" result="shadowMatrixOuter1"/><feOffset dy="-1" in="SourceAlpha" result="shadowOffsetInner1"/><feGaussianBlur in="shadowOffsetInner1" result="shadowBlurInner1"/><feComposite in="shadowBlurInner1" in2="SourceAlpha" operator="arithmetic" k2="-1" k3="1" result="shadowInnerInner1"/><feColorMatrix values="0 0 0 0 0 0 0 0 0 0 0 0 0 0 0 0 0 0 0.105 0" in="shadowInnerInner1" result="shadowMatrixInner1"/><feMerge><feMergeNode in="shadowMatrixOuter1"/><feMergeNode in="SourceGraphic"/><feMergeNode in="shadowMatrixInner1"/></feMerge></filter></defs><g fill="url(#a)"><path fill-rule="evenodd" d="M244.003 43.203l1.472-17.377 7.099-.002-.301 4.377h-.016s2.765-5.305 9.539-5.305c3.197 0 5.854 1.903 5.854 6.525 0 2.145-.821 6.476-.821 6.476-.41 3.14-.489 4.339.453 4.339.512 0 1.897-1.173 3.212-2.584.043-1.085.166-2.26.381-3.528 1.251-7.378 5.063-11.174 10.39-11.174 1.796 0 3.421.616 4.501 1.966 1.689-13.151 5.953-24.371 5.953-24.371h5.91s-10.587 41.651-3.567 42.266c2.83.248 3.782-6.455 4.135-10.369.576-16.086 6.586-31.897 6.586-31.897h5.91s-10.614 42.304-3.569 42.329c.36.001 1.378-.466 2.644-1.131-.351-1.614-.566-3.546-.607-5.84-.135-7.538 3.858-13.007 10.631-13.008 3.197 0 5.854 1.952 5.854 6.525 0 .462-.051.931-.15 1.402-.121 1.57-3.1 6.686-7.994 11.373.459.333 1.049.55 1.806.55 3.318 0 5.353-1.208 6.597-2.594l1.886.866c-.701 1.497-1.877 3.153-3.833 4.895-3.068 2.728-8.732 5.081-12.094.771-3.35 2.155-8.94 4.503-11.838-.972-1.295 1.958-3.211 3.414-5.963 3.414-4.112 0-6.718-1.278-8.006-5.462-1.971 3.175-4.626 5.444-8.229 5.444-2.799 0-6.457-2.275-7.211-8.25-1.297 2.067-2.718 4.172-3.46 5.048-1.387 1.639-3.482 3.143-5.481 3.147-2.859.006-2.618-3.638-1.377-13.155l.074-.631c.416-4.288.278-7.123-1.309-7.123-2.208 0-6.44 2.787-6.805 8.301h.015l-1.032 11.626h-7.82l.057-.678c-1.147.872-2.464 1.488-3.742 1.49-1.797.004-3.461-1.435-4.14-4.869-.422.548-.913 1.072-1.495 1.589-1.915 1.704-4.849 3.266-7.601 3.148-3.679-.158-6.914-2.912-7.075-12.751-.072-4.354.318-7.828.939-12.078l6.764-.003c-.619 3.818-3.628 18.957.997 18.957 5.38 0 8.125-18.952 8.125-18.952h5.798c-.316 2.636-2.855 19.807-1.002 19.807.865 0 1.897-1.014 2.957-2.527zm76.776-10.852c0 3.438-6.029 8.274-6.029 8.274-1.281-4.281.219-10.755 3.73-10.755 2.06 0 2.299 1.785 2.299 2.481zm-42.231 12.649c-2.442 0-2.289-5.865-1.166-9.493.833-2.688 1.709-4.507 4.629-4.507 1.378 0 2.523.866 2.523 2.898 0-.001-1.49 11.102-5.986 11.102zm-72.267-22.699s6.982-.236 8.565-9.675c1.268-7.561-6.332-10.842-14.348-10.842-10.572 0-16.416 4.154-18.259 5.794-1.956 1.741-2.381 2.338-3.244 3.794l1.298 1.967c4.373-3.383 8.021-4.282 8.021-4.282-1.971 6.747-4.669 18.214-4.497 28.63.164 10.03 3.061 13.147 11.625 13.147 10.151 0 18.611-4.529 21.045-16.209 1.498-9.416-3.773-12.324-10.206-12.324zm-10.003-14.718s2.336-.403 5.879-.403c3.543 0 8.26.624 6.719 5.87-1.802 6.132-7.371 6.766-15.935 7.323.458-6.231 3.337-12.79 3.337-12.79zm13.164 24.752c-.782 5.639-4.166 9.159-14.105 9.159-3.873 0-4.014-6.878-2.819-15.185 0 0 2.995-.487 8.741-.487 7.718 0 8.542 3.923 8.183 6.513z" filter="url(#b)"/><path fill-rule="evenodd" d="M49.618 40.807c.768 7.167 3.654 9.304 6.882 9.443 2.752.118 5.686-1.444 7.601-3.148.582-.518 1.073-1.042 1.495-1.589.679 3.434 2.343 4.873 4.14 4.869 1.604-.003 3.268-.971 4.581-2.2l-.126 1.484h7.821l1.033-11.626c.365-5.514 4.597-8.301 6.805-8.301 2.895 0 .966 9.442-.356 19.927h6.503c.741-4.626 1.635-8.567 2.108-12.831.847-4.715 4.617-7.097 6.658-7.097 1.587 0 1.725 2.835 1.308 7.123l-.073.631c-1.242 9.517-1.482 13.161 1.376 13.155 1.999-.003 4.093-1.507 5.482-3.147.595-.703 2.324-2.975 4.209-5.534 1.611 12.091 9.001 9.103 13.07 5.541 4.51-3.947 8.032-11.135 8.032-16.492 0-4.571-2.658-6.523-5.855-6.523-6.774 0-9.437 4.133-9.437 4.133 1.455-11.731 6.414-26.483 6.414-26.483h-5.909s-6.904 18.161-6.623 35.357l.015.647c-1.736 2.061-3.274 3.683-3.79 3.683-.943 0-.864-1.199-.454-4.338 0 0 .822-4.331.822-6.476 0-4.621-2.658-6.524-5.855-6.524-5.441 0-8.295 3.422-9.207 4.769-.601-3.321-2.954-4.768-5.707-4.768-6.774 0-9.539 5.304-9.539 5.304l.301-4.377-7.098.003-1.347 15.901c-1.362 2.244-2.745 3.907-3.852 3.907-1.853 0 .686-17.171 1.002-19.807h-5.798s-2.745 18.952-8.125 18.952c-4.625 0-1.616-15.139-.997-18.957l-6.764.003-.078.539c-.807 4.104-3.778 15.346-10.501 15.346-7.045 0 3.804-38.729 3.804-38.729h-7.327s-3.106 7.985-5.067 18.431h-6.258c.164-2.148.242-4.322.207-6.483-.282-17.196-10.287-13.954-14.795-10.007-4.287 3.752-7.682 10.435-8.006 15.687.372.092 3.356.804 3.356.804s2.254-10.289 9.3-10.289c7.045 0-3.805 38.947-3.805 38.947h7.327s3.716-9.669 5.584-21.61h6.023c-.348 3.09-.541 6.276-.49 9.444.282 17.197 10.286 13.955 14.795 10.008 1.995-1.746 3.796-4.126 5.185-6.702zm108.884 2.888c.459.333 1.049.55 1.806.55 3.318 0 5.353-1.208 6.597-2.594l1.886.866c-.701 1.497-1.877 3.153-3.833 4.895-3.068 2.728-8.732 5.081-12.094.771-4.6 2.959-13.422 6.282-13.702-10.779-.282-17.196 6.622-35.358 6.622-35.358h5.91s-10.614 42.304-3.569 42.329c.36.001 1.378-.466 2.644-1.131-.351-1.614-.566-3.546-.607-5.84-.135-7.538 3.858-13.007 10.631-13.008 3.197 0 5.854 1.952 5.854 6.525 0 .462-.051.931-.15 1.402-.121 1.57-3.1 6.686-7.994 11.373zm3.277-11.844c0 3.438-6.029 8.274-6.029 8.274-1.281-4.281.219-10.755 3.73-10.755 2.06 0 2.299 1.785 2.299 2.481zm-37.529 12.524c-1.368 0-1.625-5.021-1.625-7.813 0-5.506 4.746-6.823 6.954-6.823 3.156 0 3.85 1.991 2.206 5.691-1.361 3.062-4.207 8.945-7.535 8.945z" filter="url(#c)"/></g></svg>
