<?xml version="1.0" encoding="UTF-8" ?>
<svg viewBox="0 0 177 50" fill="none" xmlns="http://www.w3.org/2000/svg">
						<path fill-rule="evenodd" clip-rule="evenodd" d="M28.1744 24.6928C28.1744 15.9508 21.0877 8.86409 12.3457 8.86409V0C25.9832 0 37.0385 11.0553 37.0385 24.6928C37.0385 38.3303 25.9832 49.3856 12.3457 49.3856V40.5215C21.0877 40.5215 28.1744 33.4348 28.1744 24.6928Z" fill="#000000"></path>
						<circle cx="12.3464" cy="24.7191" r="12.3464" fill="url(#paint0_linear)"></circle>
						<path d="M55.2864 17.7725C56.2292 17.7725 57.079 17.9053 57.8359 18.1709C58.5928 18.4232 59.2434 18.7419 59.7879 19.1269L58.7322 20.9992C58.2276 20.6407 57.6699 20.3618 57.0591 20.1627C56.4483 19.9502 55.864 19.844 55.3063 19.844C54.5495 19.844 53.9586 20.0033 53.5336 20.322C53.1087 20.6407 52.8963 21.0723 52.8963 21.6167C52.8963 21.9885 53.0224 22.3072 53.2747 22.5727C53.527 22.8383 53.8324 23.0574 54.1909 23.23C54.5627 23.4026 55.0939 23.6217 55.7844 23.8873C56.7139 24.2326 57.4575 24.5512 58.0152 24.8434C58.5729 25.1222 59.0575 25.5272 59.4692 26.0584C59.8808 26.5762 60.0866 27.2335 60.0866 28.0302C60.0866 28.8801 59.8675 29.6237 59.4293 30.261C59.0044 30.8984 58.3936 31.3897 57.5969 31.735C56.8002 32.0802 55.8773 32.2528 54.8283 32.2528C53.9652 32.2528 53.0888 32.14 52.1991 31.9142C51.3228 31.6752 50.5526 31.3499 49.8887 30.9383L50.7053 28.8867C51.3427 29.232 52.0199 29.5108 52.7369 29.7233C53.454 29.9224 54.1511 30.022 54.8283 30.022C55.7047 30.022 56.3553 29.856 56.7803 29.5241C57.2185 29.1788 57.4376 28.7274 57.4376 28.1697C57.4376 27.6385 57.2118 27.2269 56.7603 26.9348C56.3089 26.6293 55.6117 26.3107 54.669 25.9787C53.7129 25.6467 52.9427 25.3413 52.3585 25.0625C51.7875 24.7703 51.2962 24.3587 50.8846 23.8276C50.4729 23.2831 50.2671 22.5794 50.2671 21.7163C50.2671 20.9328 50.4729 20.2423 50.8846 19.6448C51.2962 19.0473 51.8805 18.5892 52.6373 18.2705C53.3942 17.9385 54.2772 17.7725 55.2864 17.7725Z" fill="#000000"></path>
						<path d="M68.1322 32.0138H65.6226V20.2224H61.2605V18.0713H72.4942V20.2224H68.1322V32.0138Z" fill="#000000"></path>
						<path d="M74.5347 18.0713H83.7368V20.2025H77.0444V23.8674H82.8604V26.0185H77.0444V29.8228H83.7368V32.0138H74.5347V18.0713Z" fill="#000000"></path>
						<path d="M98.352 32.0138H95.6233L94.5875 29.066H88.8313L87.8154 32.0138H85.1863L90.4048 18.0713H93.014L98.352 32.0138ZM91.6994 20.82L89.5483 27.0343H93.8705L91.6994 20.82Z" fill="#000000"></path>
						<path d="M107.794 28.5879L112.395 18.0713H114.964V32.0138H112.554V22.513L108.471 31.715H106.877L102.735 22.6126V32.0138H100.424V18.0713H102.874L107.794 28.5879Z" fill="#000000"></path>
						<path d="M127.584 18.0713C129.085 18.0713 130.419 18.3501 131.588 18.9078C132.756 19.4655 133.666 20.2689 134.316 21.3179C134.98 22.3536 135.312 23.5753 135.312 24.9828C135.312 26.4036 134.98 27.6452 134.316 28.7074C133.666 29.7697 132.756 30.5864 131.588 31.1573C130.419 31.7283 129.085 32.0138 127.584 32.0138H122.744V18.0713H127.584ZM126.807 21.6963V28.4485H127.803C129.954 28.4485 131.03 27.2933 131.03 24.9828C131.03 23.801 130.751 22.9578 130.193 22.4532C129.649 21.9486 128.852 21.6963 127.803 21.6963H126.807Z" fill="#000000"></path>
						<path d="M137.196 18.0713H147.115V21.4573H141.18V23.3296H146.159V26.7157H141.18V28.6278H147.115V32.0138H137.196V18.0713Z" fill="#000000"></path>
						<path d="M156.301 17.7128C157.23 17.7128 158.127 17.8389 158.99 18.0912C159.866 18.3302 160.563 18.6555 161.081 19.0672L159.269 22.2341C158.91 21.9686 158.478 21.7627 157.974 21.6167C157.483 21.4706 157.005 21.3976 156.54 21.3976C155.584 21.3976 154.8 21.7229 154.189 22.3736C153.579 23.0109 153.273 23.9272 153.273 25.1222C153.273 26.2376 153.552 27.114 154.11 27.7514C154.681 28.3755 155.478 28.6875 156.5 28.6875C157.522 28.6875 158.492 28.3224 159.408 27.592L161.32 30.4602C160.789 31.0046 160.059 31.4628 159.129 31.8346C158.213 32.1931 157.19 32.3723 156.062 32.3723C154.668 32.3723 153.433 32.0736 152.357 31.476C151.295 30.8652 150.471 30.0154 149.887 28.9265C149.303 27.8244 149.011 26.5497 149.011 25.1023C149.011 23.6284 149.31 22.3337 149.907 21.2183C150.518 20.1029 151.374 19.2398 152.477 18.629C153.579 18.0182 154.853 17.7128 156.301 17.7128Z" fill="#000000"></path>
						<path d="M170.78 23.8674L176.457 32.0138H171.318L167.972 26.9348L166.936 28.0701V32.0138H162.813V18.0713H166.936V23.1304L171.039 18.0713H176.099L170.78 23.8674Z" fill="#000000"></path>
						<defs>
						<linearGradient id="paint0_linear" x1="-9.5" y1="16.9323" x2="19.5" y2="30.9323" gradientUnits="userSpaceOnUse">
						<stop offset="0.106991" stop-color="#C957E6"></stop>
						<stop offset="1" stop-color="#1A9FFF"></stop>
						</linearGradient>
						</defs>
					</svg>
