<?xml version="1.0" encoding="UTF-8" standalone="no"?>
<svg
   xmlns:dc="http://purl.org/dc/elements/1.1/"
   xmlns:cc="http://creativecommons.org/ns#"
   xmlns:rdf="http://www.w3.org/1999/02/22-rdf-syntax-ns#"
   xmlns:svg="http://www.w3.org/2000/svg"
   xmlns="http://www.w3.org/2000/svg"
   viewBox="0 0 1344 512"
   version="1.1"
   id="svg49">
  <path
     fill="#f15a23"
     opacity="1"
     d="m 180.92,23.91 c 2.59,-1.44 6.42,-0.37 7.31,2.62 0.96,2.47 -0.7,4.73 -2.06,6.64 -9.63,13.65 -16.02,29.51 -19.04,45.92 -1.83,0.78 -2.36,2.7 -1.79,4.51 0.9,0.33 1.81,0.62 2.73,0.9 18.69,-1.64 37.65,-1.3 56.05,2.63 33.48,6.74 64.77,23.68 88.82,47.9 23.98,23.97 40.81,55.03 47.62,88.26 7.55,35.98 3.33,74.28 -11.77,107.79 -32.02,68.43 -86,126.31 -152.05,163 -2.13,0.99 -5.2,1.03 -6.66,-1.09 -1.72,-2.22 -1.01,-5.38 0.69,-7.4 8.91,-12.43 15.13,-26.72 18.51,-41.62 0.65,-3.09 1.54,-6.22 1.27,-9.4 -1.09,-1.42 -2.89,-0.99 -4.42,-0.94 -32.06,3.21 -65.05,-2.52 -94.02,-16.68 C 81.08,402 54.75,377.56 37.34,347.85 21.21,320.52 12.73,288.69 13.32,256.94 13.43,227.8 21.38,198.9 35.38,173.39 67.97,110.82 119.14,58.02 180.92,23.91 m -1.8,167.21 c -19.07,2.56 -36.66,13.76 -47.34,29.72 -7.23,10.96 -11.61,23.98 -11.52,37.16 -0.54,17.66 6.5,35.35 18.7,48.07 10.66,11.48 25.47,18.96 41,20.96 15.81,2.09 32.32,-1.61 45.71,-10.3 13.61,-8.64 23.98,-22.28 28.62,-37.73 8.71,-26.82 -1.73,-58.24 -24.45,-74.81 -14.27,-10.86 -32.98,-15.68 -50.72,-13.07 z"
     id="path3" />
  <path
     id="path46"
     style="fill:#6d6e70;fill-opacity:1"
     d="m 857.06,437.58 c 2.31,-0.05 4.64,-0.08 6.96,-0.1 2.2,11.02 4.41,22.03 6.6,33.05 3.3,-10.97 6.47,-21.99 9.65,-32.99 2.9,-0.04 5.81,-0.06 8.73,-0.06 3.21,11.01 6.49,22 9.6,33.04 2.33,-10.99 4.43,-22.03 6.74,-33.03 2.29,0 4.58,0.01 6.88,0.02 -2.94,13.6 -5.67,27.24 -8.79,40.79 -3.04,-0.05 -6.08,-0.06 -9.1,-0.08 -3.21,-11.28 -6.39,-22.57 -9.69,-33.83 -3.18,11.3 -6.4,22.58 -9.67,33.86 -3.07,0 -6.14,0 -9.2,-0.01 -2.91,-13.55 -5.73,-27.12 -8.71,-40.66 z m 278.68,-0.09 c 2.36,-0.01 4.74,-0.01 7.12,-0.03 3.68,11.52 7.32,23.05 10.96,34.58 3.69,-11.51 7.39,-23.03 11.1,-34.54 2.39,-0.01 4.78,-0.01 7.19,-0.02 -6.26,19.06 -12.4,38.16 -19.17,57.04 -2.29,-0.02 -4.58,-0.04 -6.85,-0.06 1.85,-5.39 3.69,-10.78 5.63,-16.14 -0.72,-0.03 -2.15,-0.08 -2.87,-0.11 -4.3,-13.6 -8.89,-27.1 -13.11,-40.72 z m -146.54,9.65 c 0.86,-5.24 5.46,-9.29 10.64,-10 5.77,-0.91 12.8,-0.76 16.99,3.93 4.5,5.53 2.89,13.12 3.15,19.69 -8.01,-0.01 -16.02,-0.03 -24.02,0.01 0.04,3.91 -0.64,9.62 3.96,11.31 6.11,1.72 12.48,0.04 18.55,-1.09 0.25,1.94 0.53,3.88 0.81,5.83 -7.41,2.09 -15.59,3.41 -23.05,0.84 -5.14,-1.84 -7.63,-7.51 -7.46,-12.67 0.12,-5.95 -0.46,-11.95 0.43,-17.85 m 9.92,-3.04 c -3.54,2.29 -3.14,6.98 -3.17,10.66 5.7,-0.02 11.39,-0.01 17.09,0 -0.14,-3.51 0.54,-7.82 -2.48,-10.36 -3.29,-2.28 -7.99,-2.14 -11.44,-0.3 z m -35.87,-6.59 c 2.13,-0.02 4.27,-0.02 6.42,-0.03 0.11,1.83 0.24,3.66 0.39,5.5 3.43,-2.54 7.19,-4.59 11.06,-6.4 0.35,2.19 0.68,4.38 1.03,6.57 -3.96,2.23 -7.86,4.59 -11.63,7.13 -0.05,9.32 0,18.65 -0.02,27.98 -2.43,-0.01 -4.85,-0.03 -7.26,-0.04 0.02,-13.57 -0.01,-27.14 0.01,-40.71 z m -38.03,1.75 c 4.36,-2.74 9.83,-2.91 14.8,-2.19 4.17,0.54 8.12,3.21 9.64,7.23 2.02,5.23 1.19,10.97 1.33,16.45 -8.01,0.02 -16.02,-0.02 -24.02,0.01 0.1,3.77 -0.83,8.99 3.31,11.02 6.12,2.27 12.82,0.37 18.99,-0.84 0.33,1.96 0.66,3.93 1,5.91 -7.18,1.96 -14.97,3.25 -22.25,1.13 -4.84,-1.37 -8,-6.13 -8.18,-11.04 -0.24,-5.31 -0.06,-10.64 -0.1,-15.95 -0.05,-4.44 1.57,-9.27 5.48,-11.73 m 4.2,5.26 c -3.05,2.48 -2.36,6.77 -2.45,10.24 5.69,-0.01 11.39,0 17.09,-0.01 -0.17,-3.65 0.46,-8.45 -3.09,-10.76 -3.54,-1.82 -8.24,-1.76 -11.55,0.53 z m -103.03,-6.94 c 4.46,-1.19 9.28,-1.23 13.72,0.08 4.73,1.37 8.45,5.59 9.22,10.45 0.71,4.93 0.37,9.93 0.42,14.89 0.02,4.19 -0.91,8.71 -4.02,11.74 -3.52,3.63 -8.9,4.48 -13.74,4.28 -4.84,-0.11 -10.13,-1.73 -12.93,-5.94 -2.85,-4.1 -2.59,-9.32 -2.58,-14.08 0.09,-4.94 -0.53,-10.19 1.69,-14.79 1.54,-3.33 4.74,-5.64 8.22,-6.63 m 2.95,5.94 c -3.43,0.71 -5.54,4.1 -5.51,7.46 -0.04,5.36 -0.48,10.81 0.33,16.13 1.54,6.05 9.61,6.82 14.43,4.46 4.24,-2.11 3.94,-7.5 3.94,-11.53 -0.24,-4.42 0.73,-9.18 -1.28,-13.31 -2.35,-4 -7.89,-4.23 -11.91,-3.21 z m 429.3,-20.78 c 3.32,0 6.66,-0.01 10,0.11 6.08,18.5 12.45,36.91 18.65,55.38 -2.51,0.02 -5.01,0.03 -7.5,0.05 -1.6,-4.41 -3.13,-8.84 -4.61,-13.28 -7.77,0 -15.53,0 -23.28,0 -1.52,4.42 -2.95,8.86 -4.51,13.26 -2.51,-0.01 -5.02,-0.02 -7.51,-0.03 6.22,-18.51 12.48,-37.01 18.76,-55.49 m -4.74,35.77 c 6.46,-0.01 12.92,-0.02 19.39,-0.01 -3.32,-9.92 -6.39,-19.92 -9.69,-29.84 -3.39,9.9 -6.49,19.89 -9.7,29.85 z m -53.36,19.74 c -0.05,-18.51 -0.09,-37.02 0.02,-55.53 10.89,0.07 21.79,0.01 32.69,0.04 -0.02,2.16 -0.02,4.32 0,6.48 -8.42,0.01 -16.83,0.01 -25.24,0 -0.01,5.76 -0.04,11.52 0.02,17.27 7.81,-0.03 15.64,-0.01 23.46,-0.01 -0.01,2.16 0,4.32 0.01,6.49 -7.83,0.02 -15.67,0 -23.5,0.01 -0.01,6.16 0,12.33 0,18.49 8.5,0.01 16.99,0.02 25.49,0 -0.01,2.26 -0.02,4.52 -0.02,6.79 -10.98,-0.06 -21.96,-0.02 -32.93,-0.03 z M 771.25,422.74 c 6.91,0.03 13.82,0 20.74,0 4.52,0.02 9.7,0.79 12.74,4.52 3.08,3.85 2.74,9.09 2.81,13.73 -0.1,4.32 0.12,9.18 -2.71,12.76 -2.64,3.43 -7.18,4.36 -11.25,4.67 -5.02,0.22 -10.05,0.02 -15.07,0.09 -0.03,6.58 0,13.16 -0.02,19.74 -2.42,-0.01 -4.83,-0.01 -7.23,-0.01 -0.02,-18.5 -0.01,-37 -0.01,-55.5 m 7.19,6.6 c 0.1,7.45 0.08,14.9 0.02,22.36 5.89,-0.18 11.93,0.71 17.73,-0.55 4.78,-1.51 3.71,-7.24 3.86,-11.11 -0.16,-3.35 0.66,-8.36 -3.3,-9.83 -5.91,-1.76 -12.23,-0.74 -18.31,-0.87 z m 318.56,-8.3 c 2.4,-0.37 4.82,-0.72 7.25,-1.08 0,6.43 -0.01,12.87 0,19.31 5.32,-2.09 11.22,-3.29 16.89,-2.08 4.48,0.98 7.5,5.4 7.57,9.87 0.07,6.64 0.11,13.28 -0.02,19.92 -0.1,4.75 -3.09,9.39 -7.76,10.76 -7.76,2.4 -16.07,1.11 -23.91,-0.21 -0.04,-18.83 -0.01,-37.66 -0.02,-56.49 m 7.23,25.05 c 0.03,8.68 0.01,17.36 0.01,26.05 4.19,0.36 8.52,1.1 12.66,-0.09 2.36,-0.58 4.24,-2.67 4.51,-5.1 0.64,-5.29 0.26,-10.64 0.35,-15.95 -0.01,-2.69 -0.25,-6.18 -3.16,-7.36 -4.89,-1.51 -9.86,0.71 -14.37,2.45 z m -48.78,-25.01 c 2.44,-0.38 4.9,-0.73 7.36,-1.05 -0.14,19.4 -0.02,38.8 -0.06,58.21 -2.06,0 -4.11,0 -6.14,0.02 -0.17,-1.12 -0.33,-2.24 -0.48,-3.34 -5.58,3.58 -12.76,5.48 -19.17,3.13 -4.01,-1.52 -5.97,-5.97 -5.94,-10.03 -0.06,-6.36 -0.03,-12.73 -0.02,-19.09 -0.09,-4.34 1.79,-9.13 6.02,-10.91 5.87,-2.43 12.39,-0.93 18.46,-0.2 0.02,-5.58 0.04,-11.16 -0.03,-16.74 m -17.17,27.81 c -0.1,6.07 -0.05,12.14 -0.03,18.21 -0.18,2.18 0.85,4.62 3.16,5.19 5.11,1.38 10.11,-1.33 14.12,-4.26 -0.09,-7.93 0,-15.85 -0.05,-23.78 -4.43,-0.55 -8.94,-1.61 -13.39,-0.82 -2.56,0.43 -3.93,3.04 -3.81,5.46 z m 15.99,-244.48 c 14.55,-0.4 29.15,-0.05 43.72,-0.17 2.9,-0.35 6.61,1.31 6.47,4.67 0.1,48.39 0.02,96.79 0.04,145.18 0.26,2.48 -1.75,5.08 -4.37,4.87 -15.06,0.08 -30.13,0.04 -45.2,0.02 -2.27,0.18 -4.34,-1.6 -4.63,-3.82 -0.57,-3.37 -0.26,-6.81 -0.3,-10.2 0.02,-45.01 0,-90.01 0.01,-135.02 -0.23,-2.56 1.6,-5.26 4.26,-5.53 z m -278.05,-0.1 c 13.93,-0.18 27.87,0.01 41.8,-0.09 2.1,0.09 4.65,-0.2 6.2,1.57 1.5,1.29 1.48,3.39 1.54,5.19 -0.01,47.37 -0.01,94.74 0,142.12 0.34,2.79 -1.55,6.15 -4.69,5.88 -15.04,0.03 -30.08,0.04 -45.12,0 -3.09,0.27 -5.07,-3.15 -4.71,-5.92 0.02,-47.72 0.01,-95.44 0,-143.16 -0.48,-2.96 2,-5.68 4.98,-5.59 z m -58.59,4.34 c 6.91,-4.57 15.24,-6.69 23.46,-6.89 2.83,-0.27 5.4,2.32 5.13,5.15 0.05,15.7 0.04,31.4 0,47.1 0.39,3.46 -3.11,5.56 -6.2,5.22 -11.21,0.06 -23,3.56 -30.69,12.1 -8.43,9.38 -11.27,22.35 -11.8,34.63 -0.13,15.99 0.08,31.99 -0.08,47.98 0.24,2.93 -2.48,5.44 -5.36,5.07 -14.73,-0.03 -29.45,0.01 -44.18,-0.02 -2.78,0.37 -5.23,-2.16 -4.89,-4.91 -0.03,-48.38 -0.05,-96.77 0.01,-145.14 -0.15,-3.09 3.1,-4.94 5.87,-4.68 14.37,-0.01 28.73,-0.07 43.1,0.03 2.73,-0.16 5.48,1.97 5.4,4.86 0.29,8.46 0,16.94 0.11,25.41 4.42,-10.08 10.65,-19.9 20.12,-25.91 z m 495.64,-3.42 c 10.02,-4.52 21.38,-5.12 32.14,-3.48 11.08,1.74 21.79,7.09 29.03,15.79 6.55,7.7 10.25,17.49 11.79,27.4 1.33,8.27 0.98,16.68 1.02,25.02 0,27.69 0,55.38 0,83.07 0.39,2.99 -1.82,6.4 -5.11,5.96 -14.74,0.03 -29.48,0 -44.22,0.01 -2.84,0.38 -5.51,-2.07 -5.15,-4.96 -0.06,-26.02 0.02,-52.05 -0.04,-78.07 -0.09,-7.37 -1.58,-15.34 -6.94,-20.78 -9.19,-9.21 -26.84,-7.11 -33.41,4.2 -3.47,5.51 -4.13,12.19 -4.14,18.56 0.02,25.36 0,50.73 0.02,76.09 0.32,2.42 -1.64,5.02 -4.17,4.92 -14.34,0.13 -28.69,-0.04 -43.03,0.08 -1.98,-0.1 -4.31,0.25 -5.77,-1.37 -1.69,-1.76 -1.46,-4.41 -1.56,-6.66 0.08,-47 -0.03,-94.01 0.05,-141.02 -0.34,-2.99 2.14,-5.78 5.17,-5.67 14.36,-0.18 28.74,-0.03 43.1,-0.08 2.5,-0.16 5.65,0.98 6.06,3.78 0.35,5.93 0.03,11.89 0.13,17.83 6.7,-8.58 14.95,-16.24 25.03,-20.62 z m -203.21,-16.4 c 1.8,-1.24 3.85,-2.03 5.87,-2.87 2.19,0.93 4.69,2.4 4.54,5.15 0.08,44.62 0.01,89.26 0.04,133.88 -0.33,17.22 -2.95,35.25 -12.71,49.86 -8.66,13.12 -22.75,21.89 -37.75,25.96 -19.23,5.34 -39.53,5.41 -59.26,3.44 -17.56,-1.93 -34.85,-6.6 -50.84,-14.13 -2.79,-0.96 -4.4,-4.33 -2.92,-7 4.29,-9.08 8.69,-18.14 13.15,-27.14 1.2,-2.99 5.04,-3.43 7.55,-1.85 17.24,8.88 36.94,13.3 56.32,11.49 9.73,-0.98 19.76,-4.79 25.78,-12.86 6.57,-8.47 7.29,-19.67 6.94,-29.98 -8.38,9.38 -18.77,17.42 -31.14,20.59 -19.18,4.83 -40.52,1.13 -56.76,-10.25 -13.17,-9.17 -22.23,-23.55 -25.91,-39.07 -3.01,-12.81 -3.17,-26.3 -0.52,-39.18 3.26,-15.85 11.86,-30.8 24.8,-40.68 8.39,-6.5 18.43,-10.85 28.9,-12.61 6.22,-1.19 12.58,-0.77 18.87,-0.82 13.01,-0.02 26.02,0.03 39.03,-0.04 1.45,0.07 3.13,-0.15 4.31,0.95 3.27,2.76 6.07,6.04 9.19,8.98 10.81,-7.32 21.8,-14.37 32.52,-21.82 m -83.57,55.74 c -6.16,1.56 -11.88,5.01 -15.94,9.92 -9.25,11.12 -8.82,29.21 1.37,39.59 12.18,12.56 34.91,12.6 46.99,-0.13 10.7,-11.06 10.62,-30.66 -0.34,-41.53 -8.21,-8.27 -21.01,-10.66 -32.08,-7.85 z m 380.98,-66.58 c 1.71,0.03 3.43,0.07 5.17,0.14 2.05,3.48 4.23,6.89 6.48,10.25 2.31,-3.41 4.49,-6.92 6.72,-10.39 1.62,0.01 3.26,0.01 4.91,0.02 -0.01,7.66 -0.01,15.32 0,22.98 -1.52,0 -3.02,0 -4.5,0.01 -0.02,-5.15 0.08,-10.29 -0.12,-15.43 -2.52,3.41 -4.69,7.06 -7.07,10.56 -2.41,-3.6 -4.74,-7.24 -7.06,-10.88 0.01,5.25 0,10.5 0,15.75 -1.52,0 -3.02,0 -4.5,0.01 -0.03,-7.67 0.03,-15.35 -0.03,-23.02 z m -23.48,0.02 c 6.26,-0.01 12.51,-0.02 18.78,0 -0.04,1.41 -0.04,2.82 -0.04,4.24 -2.34,0 -4.67,0 -6.98,0.01 0,6.24 -0.02,12.47 0.03,18.71 -1.53,0.01 -3.04,0.03 -4.54,0.04 0.01,-6.25 0.01,-12.5 0,-18.75 -2.42,-0.02 -4.83,-0.02 -7.23,-0.03 -0.02,-1.41 -0.03,-2.82 -0.02,-4.22 z M 497.54,155.75 c 21.56,-2.47 43.95,0.64 63.55,10.15 17.31,8.24 32.25,21.44 42.45,37.68 18.68,29.39 20.73,68.35 5.79,99.72 -8.49,18 -22.42,33.32 -39.39,43.68 -31.05,19.06 -71.42,21.24 -104.73,6.85 -19.61,-8.5 -36.55,-23.17 -47.42,-41.61 -12.52,-20.89 -16.81,-46.31 -12.87,-70.27 3.4,-21.11 13.67,-41.08 28.98,-56.02 16.93,-16.97 39.91,-27.45 63.64,-30.18 m 6.03,49.96 c -11.18,1.55 -21.74,7.14 -29.23,15.6 -18.57,20.65 -18.22,55.37 0.76,75.65 9.95,11.05 25.12,16.93 39.92,15.84 12.76,-0.71 25.22,-6.48 33.65,-16.15 19.62,-21.64 17.96,-58.89 -3.74,-78.53 -10.99,-10.14 -26.64,-14.61 -41.36,-12.41 z m 566.58,-80.45 c 13.95,-3.57 29.67,4.14 35.14,17.5 6.01,13.26 0.89,30.36 -11.62,37.9 -7.21,4.69 -16.4,5.81 -24.64,3.61 -8.13,-2.21 -15.13,-8.06 -18.94,-15.55 -4.42,-8.74 -4.34,-19.65 0.37,-28.26 4.01,-7.56 11.36,-13.23 19.69,-15.2 z m -279.71,0.22 c 12.36,-3.5 26.53,1.8 33.43,12.65 5.03,7.49 6.26,17.24 3.68,25.84 -3.31,10.91 -13.21,19.57 -24.57,21.06 -11.19,1.83 -23.11,-3.19 -29.53,-12.56 -6.86,-9.55 -7.35,-23.17 -1.21,-33.2 3.97,-6.74 10.63,-11.82 18.2,-13.79 z" />
</svg>
