<?xml version="1.0" encoding="UTF-8" standalone="no"?>
<svg
   xmlns:dc="http://purl.org/dc/elements/1.1/"
   xmlns:cc="http://creativecommons.org/ns#"
   xmlns:rdf="http://www.w3.org/1999/02/22-rdf-syntax-ns#"
   xmlns:svg="http://www.w3.org/2000/svg"
   xmlns="http://www.w3.org/2000/svg"
   viewBox="0 0 245.86501 299.99999"
   xml:space="preserve"
   id="svg2"
   version="1.1"><metadata
     id="metadata8"><rdf:RDF><cc:Work
         rdf:about=""><dc:format>image/svg+xml</dc:format><dc:type
           rdf:resource="http://purl.org/dc/dcmitype/StillImage" /><dc:title></dc:title></cc:Work></rdf:RDF></metadata><defs
     id="defs6"><clipPath
       id="clipPath20"
       clipPathUnits="userSpaceOnUse"><path
         id="path18"
         d="M 0,226.772 H 340.157 V 0 H 0 Z" /></clipPath></defs><g
     transform="matrix(4.3485635,0,0,-4.3485635,-986.99907,629.89767)"
     id="g10"><g
       id="g14"><g
         clip-path="url(#clipPath20)"
         id="g16"><g
           transform="translate(232.7953,76.0836)"
           id="g22"><path
             id="path24"
             style="fill:#333333;fill-opacity:1;fill-rule:nonzero;stroke:none"
             d="m 0,0 c -0.465,-0.147 -0.975,-0.22 -1.53,-0.22 -0.657,0 -1.249,0.101 -1.776,0.305 -0.528,0.203 -0.979,0.488 -1.353,0.854 -0.374,0.367 -0.662,0.806 -0.863,1.318 -0.201,0.514 -0.302,1.077 -0.302,1.692 0,0.623 0.098,1.191 0.293,1.703 0.196,0.513 0.474,0.952 0.835,1.319 0.361,0.367 0.799,0.65 1.315,0.851 0.517,0.202 1.094,0.302 1.732,0.302 0.323,0 0.623,-0.024 0.9,-0.071 C -0.472,8.006 -0.215,7.938 0.02,7.848 0.255,7.759 0.474,7.65 0.675,7.524 0.876,7.396 1.064,7.252 1.239,7.094 L 0.925,6.592 C 0.876,6.516 0.812,6.468 0.734,6.447 0.657,6.426 0.57,6.444 0.475,6.501 0.384,6.554 0.28,6.619 0.162,6.695 0.044,6.77 -0.099,6.844 -0.268,6.914 c -0.169,0.07 -0.368,0.13 -0.598,0.18 -0.23,0.049 -0.502,0.073 -0.817,0.073 -0.46,0 -0.875,-0.074 -1.248,-0.224 C -3.303,6.792 -3.62,6.578 -3.882,6.299 -4.144,6.02 -4.345,5.682 -4.486,5.285 c -0.14,-0.396 -0.21,-0.842 -0.21,-1.336 0,-0.512 0.073,-0.97 0.219,-1.375 0.146,-0.404 0.355,-0.749 0.627,-1.031 0.271,-0.283 0.601,-0.498 0.988,-0.647 0.387,-0.148 0.822,-0.222 1.304,-0.222 0.19,0 0.368,0.012 0.533,0.034 0.165,0.023 0.323,0.055 0.475,0.095 0.152,0.04 0.298,0.089 0.439,0.147 0.14,0.06 0.283,0.127 0.427,0.203 v 1.8 h -1.27 c -0.072,0 -0.131,0.021 -0.174,0.062 -0.043,0.042 -0.066,0.093 -0.066,0.155 V 3.796 H 1.313 V 0.663 C 0.903,0.367 0.465,0.146 0,0" /></g><g
           transform="translate(242.6573,80.0329)"
           id="g26"><path
             id="path28"
             style="fill:#333333;fill-opacity:1;fill-rule:nonzero;stroke:none"
             d="M 0,0 C 0,0.501 -0.068,0.951 -0.205,1.35 -0.342,1.749 -0.535,2.086 -0.786,2.361 -1.037,2.636 -1.34,2.848 -1.697,2.996 -2.054,3.145 -2.453,3.218 -2.893,3.218 -3.33,3.218 -3.727,3.145 -4.084,2.996 -4.44,2.848 -4.745,2.636 -4.998,2.361 -5.25,2.086 -5.445,1.749 -5.582,1.35 -5.718,0.951 -5.787,0.501 -5.787,0 c 0,-0.501 0.069,-0.95 0.205,-1.347 0.137,-0.397 0.332,-0.733 0.584,-1.008 0.253,-0.275 0.558,-0.486 0.914,-0.632 0.357,-0.146 0.754,-0.22 1.191,-0.22 0.44,0 0.839,0.074 1.196,0.22 0.357,0.146 0.66,0.357 0.911,0.632 0.251,0.275 0.444,0.611 0.581,1.008 C -0.068,-0.95 0,-0.501 0,0 m 1.133,0 c 0,-0.611 -0.096,-1.172 -0.29,-1.683 -0.193,-0.51 -0.467,-0.95 -0.82,-1.318 -0.354,-0.369 -0.777,-0.655 -1.273,-0.858 -0.496,-0.203 -1.044,-0.304 -1.643,-0.304 -0.6,0 -1.147,0.101 -1.641,0.304 -0.493,0.203 -0.917,0.489 -1.27,0.858 -0.353,0.368 -0.626,0.808 -0.82,1.318 -0.193,0.511 -0.29,1.072 -0.29,1.683 0,0.612 0.097,1.172 0.29,1.684 0.194,0.51 0.467,0.95 0.82,1.321 0.353,0.37 0.777,0.658 1.27,0.863 0.494,0.205 1.041,0.307 1.641,0.307 0.599,0 1.147,-0.102 1.643,-0.307 C -0.754,3.663 -0.331,3.375 0.023,3.005 0.376,2.634 0.65,2.194 0.843,1.684 1.037,1.172 1.133,0.612 1.133,0" /></g><g
           transform="translate(251.1349,76.0836)"
           id="g30"><path
             id="path32"
             style="fill:#333333;fill-opacity:1;fill-rule:nonzero;stroke:none"
             d="m 0,0 c -0.465,-0.147 -0.975,-0.22 -1.53,-0.22 -0.657,0 -1.249,0.101 -1.776,0.305 -0.528,0.203 -0.979,0.488 -1.353,0.854 -0.374,0.367 -0.662,0.806 -0.863,1.318 -0.201,0.514 -0.302,1.077 -0.302,1.692 0,0.623 0.098,1.191 0.293,1.703 0.196,0.513 0.474,0.952 0.835,1.319 0.361,0.367 0.799,0.65 1.315,0.851 0.517,0.202 1.094,0.302 1.732,0.302 0.323,0 0.623,-0.024 0.9,-0.071 C -0.472,8.006 -0.215,7.938 0.02,7.848 0.255,7.759 0.474,7.65 0.675,7.524 0.876,7.396 1.064,7.252 1.239,7.094 L 0.925,6.592 C 0.876,6.516 0.812,6.468 0.734,6.447 0.657,6.426 0.57,6.444 0.475,6.501 0.384,6.554 0.28,6.619 0.162,6.695 0.044,6.77 -0.099,6.844 -0.268,6.914 c -0.169,0.07 -0.368,0.13 -0.598,0.18 -0.23,0.049 -0.502,0.073 -0.817,0.073 -0.46,0 -0.875,-0.074 -1.248,-0.224 C -3.303,6.792 -3.62,6.578 -3.882,6.299 -4.144,6.02 -4.345,5.682 -4.486,5.285 c -0.14,-0.396 -0.21,-0.842 -0.21,-1.336 0,-0.512 0.073,-0.97 0.219,-1.375 0.146,-0.404 0.355,-0.749 0.627,-1.031 0.271,-0.283 0.601,-0.498 0.988,-0.647 0.387,-0.148 0.822,-0.222 1.304,-0.222 0.19,0 0.368,0.012 0.533,0.034 0.165,0.023 0.323,0.055 0.475,0.095 0.152,0.04 0.298,0.089 0.439,0.147 0.14,0.06 0.283,0.127 0.427,0.203 v 1.8 h -1.27 c -0.072,0 -0.131,0.021 -0.174,0.062 -0.043,0.042 -0.065,0.093 -0.065,0.155 V 3.796 H 1.313 V 0.663 C 0.903,0.367 0.465,0.146 0,0" /></g><g
           transform="translate(254.3708,76.5819)"
           id="g34"><path
             id="path36"
             style="fill:#333333;fill-opacity:1;fill-rule:nonzero;stroke:none"
             d="M 0,0 C 0,0.098 0.018,0.191 0.054,0.278 0.09,0.366 0.139,0.442 0.202,0.506 0.265,0.571 0.34,0.622 0.427,0.66 0.514,0.698 0.607,0.717 0.706,0.717 0.805,0.717 0.898,0.698 0.985,0.66 1.072,0.622 1.148,0.571 1.213,0.506 1.277,0.442 1.329,0.366 1.367,0.278 1.404,0.191 1.424,0.098 1.424,0 1.424,-0.102 1.404,-0.197 1.367,-0.282 1.329,-0.368 1.277,-0.443 1.213,-0.507 1.148,-0.572 1.072,-0.622 0.985,-0.658 0.898,-0.694 0.805,-0.712 0.706,-0.712 0.607,-0.712 0.514,-0.694 0.427,-0.658 0.34,-0.622 0.265,-0.572 0.202,-0.507 0.139,-0.443 0.09,-0.368 0.054,-0.282 0.018,-0.197 0,-0.102 0,0" /></g><g
           transform="translate(263.3869,77.6408)"
           id="g38"><path
             id="path40"
             style="fill:#333333;fill-opacity:1;fill-rule:nonzero;stroke:none"
             d="m 0,0 c 0.061,0 0.114,-0.024 0.159,-0.074 l 0.439,-0.473 c -0.334,-0.387 -0.74,-0.689 -1.216,-0.906 -0.477,-0.216 -1.053,-0.324 -1.729,-0.324 -0.585,0 -1.116,0.101 -1.595,0.305 -0.478,0.203 -0.886,0.487 -1.224,0.854 -0.338,0.367 -0.6,0.806 -0.786,1.318 -0.186,0.514 -0.279,1.077 -0.279,1.692 0,0.616 0.097,1.179 0.29,1.692 0.194,0.512 0.466,0.953 0.818,1.321 0.351,0.369 0.771,0.654 1.261,0.858 0.49,0.203 1.031,0.304 1.624,0.304 0.58,0 1.093,-0.093 1.537,-0.279 C -0.257,6.102 0.135,5.85 0.473,5.531 L 0.108,5.024 C 0.085,4.986 0.056,4.955 0.02,4.93 -0.017,4.905 -0.065,4.893 -0.126,4.893 -0.194,4.893 -0.277,4.93 -0.376,5.004 -0.475,5.077 -0.604,5.161 -0.764,5.251 -0.923,5.343 -1.122,5.425 -1.361,5.499 -1.6,5.574 -1.895,5.61 -2.244,5.61 -2.666,5.61 -3.051,5.538 -3.4,5.391 -3.75,5.245 -4.051,5.033 -4.303,4.756 -4.556,4.479 -4.752,4.141 -4.893,3.742 -5.033,3.343 -5.104,2.893 -5.104,2.392 c 0,-0.508 0.074,-0.962 0.22,-1.361 0.146,-0.399 0.346,-0.736 0.598,-1.011 0.252,-0.275 0.55,-0.485 0.894,-0.629 0.344,-0.144 0.715,-0.217 1.113,-0.217 0.244,0 0.463,0.014 0.659,0.043 0.195,0.029 0.375,0.073 0.541,0.134 0.165,0.06 0.319,0.138 0.461,0.23 0.142,0.093 0.283,0.205 0.424,0.334 C -0.129,-0.028 -0.065,0 0,0" /></g><g
           transform="translate(271.8926,80.0329)"
           id="g42"><path
             id="path44"
             style="fill:#333333;fill-opacity:1;fill-rule:nonzero;stroke:none"
             d="M 0,0 C 0,0.501 -0.068,0.951 -0.205,1.35 -0.342,1.749 -0.535,2.086 -0.786,2.361 -1.037,2.636 -1.34,2.848 -1.697,2.996 -2.054,3.145 -2.453,3.218 -2.893,3.218 -3.33,3.218 -3.727,3.145 -4.084,2.996 -4.44,2.848 -4.745,2.636 -4.998,2.361 -5.25,2.086 -5.445,1.749 -5.582,1.35 -5.718,0.951 -5.787,0.501 -5.787,0 c 0,-0.501 0.069,-0.95 0.205,-1.347 0.137,-0.397 0.332,-0.733 0.584,-1.008 0.253,-0.275 0.558,-0.486 0.914,-0.632 0.357,-0.146 0.754,-0.22 1.191,-0.22 0.44,0 0.839,0.074 1.196,0.22 0.357,0.146 0.66,0.357 0.911,0.632 0.251,0.275 0.444,0.611 0.581,1.008 C -0.068,-0.95 0,-0.501 0,0 m 1.133,0 c 0,-0.611 -0.096,-1.172 -0.29,-1.683 -0.194,-0.51 -0.467,-0.95 -0.82,-1.318 -0.354,-0.369 -0.777,-0.655 -1.273,-0.858 -0.496,-0.203 -1.044,-0.304 -1.643,-0.304 -0.6,0 -1.147,0.101 -1.641,0.304 -0.493,0.203 -0.917,0.489 -1.27,0.858 -0.353,0.368 -0.626,0.808 -0.82,1.318 -0.193,0.511 -0.29,1.072 -0.29,1.683 0,0.612 0.097,1.172 0.29,1.684 0.194,0.51 0.467,0.95 0.82,1.321 0.353,0.37 0.777,0.658 1.27,0.863 0.494,0.205 1.041,0.307 1.641,0.307 0.599,0 1.147,-0.102 1.643,-0.307 C -0.754,3.663 -0.331,3.375 0.023,3.005 0.376,2.634 0.649,2.194 0.843,1.684 1.037,1.172 1.133,0.612 1.133,0" /></g><g
           transform="translate(279.1647,78.6173)"
           id="g46"><path
             id="path48"
             style="fill:#333333;fill-opacity:1;fill-rule:nonzero;stroke:none"
             d="m 0,0 c 0.042,-0.1 0.083,-0.2 0.125,-0.298 0.038,0.102 0.078,0.204 0.12,0.304 0.041,0.1 0.087,0.197 0.136,0.287 L 3.15,5.312 C 3.195,5.399 3.245,5.452 3.3,5.471 3.355,5.49 3.432,5.499 3.531,5.499 H 4.346 V -2.662 H 3.377 v 5.997 c 0,0.08 0.002,0.165 0.006,0.257 0.004,0.091 0.01,0.183 0.017,0.279 L 0.603,-1.233 C 0.516,-1.403 0.383,-1.489 0.205,-1.489 h -0.16 c -0.178,0 -0.311,0.086 -0.398,0.256 l -2.859,5.121 c 0.011,-0.1 0.019,-0.196 0.025,-0.29 0.006,-0.096 0.009,-0.183 0.009,-0.263 v -5.997 h -0.969 v 8.161 h 0.815 c 0.099,0 0.174,-0.009 0.228,-0.028 C -3.051,5.452 -3,5.399 -2.951,5.312 l 2.82,-5.024 C -0.086,0.197 -0.042,0.101 0,0" /></g><g
           transform="translate(243.818,110.3118)"
           id="g50"><path
             id="path52"
             style="fill:#333333;fill-opacity:1;fill-rule:evenodd;stroke:none"
             d="m 0,0 h -6.566 -0.011 c -0.516,0 -0.93,-0.419 -0.93,-0.935 0,0 0.002,0 0.002,-0.006 h -0.002 v -4.693 h 0.002 l -0.002,-0.004 c 0,-0.514 0.414,-0.937 0.93,-0.937 h 0.011 0.68 H 0 v -3.131 h -8.207 v 0.008 c -1.343,0 -2.429,1.086 -2.429,2.425 v 7.98 c 0,1.332 1.086,2.418 2.429,2.418 H 0 Z" /></g><g
           transform="translate(246.1925,119.0264)"
           id="g54"><path
             id="path56"
             style="fill:#333333;fill-opacity:1;fill-rule:evenodd;stroke:none"
             d="M 0,0 C 0,-1.365 -1.103,-2.463 -2.462,-2.463 H -13.018 V 0.71 h 8.89 0.01 c 0.524,0 0.944,0.428 0.944,0.949 v 0.006 10.475 0.007 c 0,0.523 -0.42,0.947 -0.944,0.947 h -0.01 -4.763 -0.01 c -0.523,0 -0.944,-0.424 -0.944,-0.947 V 12.14 7.38 7.374 c 0,-0.524 0.421,-0.949 0.944,-0.949 h 0.01 3.811 V 3.252 h -5.477 c -1.362,0 -2.461,1.1 -2.461,2.461 v 8.094 c 0,1.36 1.099,2.462 2.461,2.462 h 8.095 C -1.103,16.269 0,15.167 0,13.807 Z" /></g><g
           transform="translate(277.2978,100.6138)"
           id="g58"><path
             id="path60"
             style="fill:#333333;fill-opacity:1;fill-rule:evenodd;stroke:none"
             d="m 0,0 h -3.128 v 9.698 h -2.188 -0.01 c -0.517,0 -0.931,-0.419 -0.931,-0.935 V 8.757 0 h -3.128 v 9.698 h -2.193 -0.006 c -0.518,0 -0.932,-0.419 -0.932,-0.935 V 8.757 -0.008 h -3.127 v 10.413 c 0,1.332 1.083,2.418 2.426,2.418 H 0 Z" /></g><g
           transform="translate(277.3066,119.0264)"
           id="g62"><path
             id="path64"
             style="fill:#333333;fill-opacity:1;fill-rule:evenodd;stroke:none"
             d="M 0,0 C 0,-1.365 -1.104,-2.463 -2.461,-2.463 H -13.018 V 0.71 h 8.894 0.006 c 0.526,0 0.948,0.428 0.948,0.949 v 0.006 10.475 0.007 c 0,0.523 -0.422,0.947 -0.948,0.947 H -4.124 -8.891 -8.9 c -0.518,0 -0.941,-0.424 -0.941,-0.947 V 12.14 7.38 7.374 c 0,-0.524 0.423,-0.949 0.941,-0.949 h 0.009 3.81 V 3.252 h -5.474 c -1.362,0 -2.463,1.1 -2.463,2.461 v 8.094 c 0,1.36 1.101,2.462 2.463,2.462 h 8.094 C -1.104,16.269 0,15.167 0,13.807 Z" /></g><g
           transform="translate(258.5686,131.166)"
           id="g66"><path
             id="path68"
             style="fill:#333333;fill-opacity:1;fill-rule:evenodd;stroke:none"
             d="m 0,0 v -4.759 -0.006 c 0,-0.524 -0.411,-0.95 -0.936,-0.95 H -0.947 -5.71 -5.717 c -0.525,0 -0.945,0.426 -0.945,0.95 V -4.759 0 0.008 c 0,0.523 0.42,0.946 0.945,0.946 h 0.007 4.763 0.011 C -0.411,0.954 0,0.531 0,0.008 Z m 0.721,4.129 h -8.098 c -1.36,0 -2.459,-1.102 -2.459,-2.462 v -8.094 c 0,-1.36 1.099,-2.461 2.459,-2.461 h 8.098 c 1.356,0 2.46,1.101 2.46,2.461 v 8.094 c 0,1.36 -1.104,2.462 -2.46,2.462" /></g><g
           transform="translate(256.022,109.3712)"
           id="g70"><path
             id="path72"
             style="fill:#333333;fill-opacity:1;fill-rule:evenodd;stroke:none"
             d="m 0,0 v -4.693 c 0,-0.516 -0.414,-0.937 -0.928,-0.937 -0.005,0 -0.006,0.005 -0.011,0.005 V -5.63 h -4.692 v 0.005 c 0,0 -0.005,-0.005 -0.01,-0.005 -0.516,0 -0.93,0.421 -0.93,0.937 V 0 0.006 c 0,0.516 0.414,0.935 0.93,0.935 h 0.01 4.692 0.011 C -0.414,0.941 0,0.522 0,0.006 Z M 0.703,4.066 H -7.273 C -8.616,4.066 -9.7,2.98 -9.7,1.648 v -7.98 c 0,-1.339 1.084,-2.425 2.427,-2.425 h 7.976 c 1.338,0 2.424,1.086 2.424,2.425 v 7.98 c 0,1.332 -1.086,2.418 -2.424,2.418" /></g><g
           transform="translate(282.3085,95.1629)"
           id="g74"><path
             id="path76"
             style="fill:#333333;fill-opacity:1;fill-rule:nonzero;stroke:none"
             d="M 0,0 C 0,-0.806 -0.325,-1.53 -0.853,-2.059 -1.381,-2.586 -2.106,-2.91 -2.91,-2.91 h -48.315 c -0.805,0 -1.529,0.324 -2.057,0.851 -0.528,0.529 -0.851,1.253 -0.853,2.059 v 45.578 c 0.002,0.805 0.325,1.528 0.853,2.057 0.528,0.527 1.252,0.851 2.057,0.852 H -2.91 c 0.804,-0.001 1.529,-0.325 2.057,-0.852 C -0.325,47.106 0,46.383 0,45.578 Z m -0.004,48.485 c -0.742,0.744 -1.772,1.204 -2.906,1.204 h -48.315 c -1.134,0 -2.164,-0.46 -2.906,-1.204 -0.744,-0.742 -1.206,-1.774 -1.206,-2.907 V 0 c 0,-1.134 0.462,-2.166 1.206,-2.908 0.742,-0.743 1.772,-1.205 2.906,-1.205 H -2.91 c 1.134,0 2.164,0.462 2.906,1.205 C 0.74,-2.166 1.202,-1.134 1.202,0 v 45.578 c 0,1.133 -0.462,2.165 -1.206,2.907" /></g></g></g></g></svg>
