<?xml version="1.0" encoding="UTF-8" standalone="no"?>
<svg
   xmlns:dc="http://purl.org/dc/elements/1.1/"
   xmlns:cc="http://creativecommons.org/ns#"
   xmlns:rdf="http://www.w3.org/1999/02/22-rdf-syntax-ns#"
   xmlns:svg="http://www.w3.org/2000/svg"
   xmlns="http://www.w3.org/2000/svg"
   xmlns:sodipodi="http://sodipodi.sourceforge.net/DTD/sodipodi-0.dtd"
   xmlns:inkscape="http://www.inkscape.org/namespaces/inkscape"
   id="Layer_1"
   data-name="Layer 1"
   viewBox="0 0 1759.99 677.03003"
   version="1.1"
   sodipodi:docname="PC Game Pass logo.svg"
   inkscape:version="0.92.1 r15371">
  <metadata
     id="metadata3705">
    <rdf:RDF>
      <cc:Work
         rdf:about="">
        <dc:format>image/svg+xml</dc:format>
        <dc:type
           rdf:resource="http://purl.org/dc/dcmitype/StillImage" />
        <dc:title></dc:title>
      </cc:Work>
    </rdf:RDF>
  </metadata>
  <sodipodi:namedview
     pagecolor="#ffffff"
     bordercolor="#666666"
     borderopacity="1"
     objecttolerance="10"
     gridtolerance="10"
     guidetolerance="10"
     inkscape:pageopacity="0"
     inkscape:pageshadow="2"
     inkscape:window-width="1755"
     inkscape:window-height="1120"
     id="namedview3703"
     showgrid="false"
     inkscape:pagecheckerboard="true"
     fit-margin-top="0"
     fit-margin-left="0"
     fit-margin-right="0"
     fit-margin-bottom="0"
     inkscape:zoom="0.10836886"
     inkscape:cx="425.5362"
     inkscape:cy="-95.15372"
     inkscape:window-x="178"
     inkscape:window-y="39"
     inkscape:window-maximized="0"
     inkscape:current-layer="Layer_1" />
  <defs
     id="defs3688">
    <style
       id="style3680">.cls-1{fill:none;}.cls-2{fill:#fff;}.cls-3{clip-path:url(#clip-path);}.cls-4{clip-path:url(#clip-path-2);}</style>
    <clipPath
       id="clip-path">
      <rect
         class="cls-1"
         x="13.98"
         y="163.36"
         width="1760.01"
         height="677.03003"
         id="rect3682"
         style="fill:none" />
    </clipPath>
    <clipPath
       id="clip-path-2">
      <rect
         class="cls-1"
         x="-243.28"
         y="-93.529999"
         width="2274.53"
         height="1186.35"
         id="rect3685"
         style="fill:none" />
    </clipPath>
  </defs>
  <g
     class="cls-3"
     clip-path="url(#clip-path)"
     id="g3700"
     transform="translate(-14,-163.36)"
     style="fill:#117d10;fill-opacity:1">
    <g
       class="cls-4"
       clip-path="url(#clip-path-2)"
       id="g3698"
       style="fill:#117d10;fill-opacity:1">
      <path
         class="cls-2"
         d="m 894,334.11 a 1.3,1.3 0 0 1 0.69,0.35 c 63.67,48.43 172.7,168.23 139.45,202.07 a 212.88,212.88 0 0 1 -280.29,0 C 720.6,502.69 829.62,382.89 893.29,334.46 a 1.36,1.36 0 0 1 0.71,-0.35 m 110.91,-139.6 C 972.28,175.14 937,163.36 894,163.36 c -43,0 -78.31,11.78 -110.91,31.15 a 0.81,0.81 0 0 0 -0.36,1.06 0.84,0.84 0 0 0 1,0.37 C 825,187 887.6,222.63 893.54,226.21 a 0.93,0.93 0 0 0 0.45,0.16 0.9,0.9 0 0 0 0.44,-0.16 c 5.94,-3.58 68.56,-39.18 109.79,-30.27 a 0.84,0.84 0 0 0 1,-0.37 0.82,0.82 0 0 0 -0.35,-1.06 M 745,224.45 a 3.85,3.85 0 0 0 -0.94,0.72 212.84,212.84 0 0 0 -19.39,280.08 0.91,0.91 0 0 0 1.13,0.34 0.87,0.87 0 0 0 0.25,-1.09 C 709.82,454.32 792.8,332.67 835.65,281.66 a 0.84,0.84 0 0 0 -0.07,-1.32 c -64.95,-64.6 -87,-57.73 -90.58,-55.89 m 207.49,55.89 a 0.84,0.84 0 0 0 -0.07,1.32 c 42.85,51 125.83,172.66 109.6,222.84 a 0.87,0.87 0 0 0 0.25,1.09 0.92,0.92 0 0 0 1.14,-0.34 212.86,212.86 0 0 0 -19.41,-280.08 3.85,3.85 0 0 0 -0.94,-0.72 c -3.58,-1.84 -25.63,-8.71 -90.58,55.89 m 390.52,485.07 31.26,-82.78 31.27,82.78 z m 46.88,-109.9 h -31.24 l -70.6,180.82 h 28.68 l 17.48,-46.85 h 80.14 l 17.47,46.85 h 28.68 z M 1774,786.18 c 0,16.72 -6.29,30.09 -18.71,39.71 -12.42,9.62 -29.78,14.49 -51.69,14.49 -23.75,0 -42.51,-5.47 -55.74,-16.26 -13.23,-10.79 -20.06,-26.81 -20.24,-47.56 v -0.26 h 27.63 v 0.26 c 0.25,13.35 4.48,23.51 12.56,30.18 8.08,6.67 20.31,10.07 36.3,10.07 13.21,0 23.52,-2.58 30.61,-7.68 7.09,-5.1 10.65,-12.53 10.65,-22.19 0,-7.81 -2.95,-13.91 -8.75,-18.14 -5.8,-4.23 -16.55,-8.12 -31.81,-11.48 L 1689.36,754 c -18.53,-3.7 -32.71,-9.86 -42.16,-18.29 -9.45,-8.43 -14.26,-20.28 -14.26,-35.14 0,-14.86 5.83,-26.91 17.32,-35.79 11.49,-8.88 27.2,-13.35 46.75,-13.35 23.58,0 41.58,5.14 53.47,15.26 11.89,10.12 18.11,24.25 18.45,42 V 709 h -27.36 v -0.24 c -0.83,-11.51 -4.68,-20.1 -11.42,-25.52 -6.74,-5.42 -17.82,-8.16 -32.88,-8.16 -11.71,0 -20.77,2.2 -26.94,6.53 -6.17,4.33 -9.25,10.55 -9.25,18.52 0,8.15 2.77,14.38 8.24,18.53 5.53,4.51 15.88,8.42 30.79,11.59 l 15.7,3.3 c 20.54,4.37 35.54,10.79 44.56,19 9.02,8.21 13.63,19.6 13.63,33.62 m -160.83,0 c 0,16.72 -6.3,30.09 -18.71,39.71 -12.41,9.62 -29.79,14.49 -51.69,14.49 -23.76,0 -42.51,-5.47 -55.76,-16.26 -13.25,-10.79 -20,-26.81 -20.22,-47.56 v -0.26 h 27.62 v 0.26 c 0.26,13.35 4.48,23.51 12.57,30.18 8.09,6.67 20.31,10.07 36.29,10.07 13.22,0 23.51,-2.58 30.61,-7.68 7.1,-5.1 10.65,-12.53 10.65,-22.19 0,-7.81 -2.94,-13.91 -8.75,-18.14 -5.81,-4.23 -16.55,-8.12 -31.81,-11.48 L 1528.52,754 c -18.52,-3.7 -32.71,-9.86 -42.15,-18.29 -9.44,-8.43 -14.27,-20.28 -14.27,-35.14 0,-14.86 5.82,-26.91 17.31,-35.79 11.49,-8.88 27.21,-13.35 46.76,-13.35 23.59,0 41.58,5.14 53.47,15.26 11.89,10.12 18.12,24.25 18.45,42 V 709 h -27.36 v -0.24 c -0.84,-11.51 -4.69,-20.1 -11.43,-25.52 -6.74,-5.42 -17.82,-8.16 -32.88,-8.16 -11.7,0 -20.77,2.2 -26.94,6.53 -6.17,4.33 -9.25,10.55 -9.25,18.52 0,8.15 2.77,14.38 8.25,18.53 5.52,4.51 15.87,8.42 30.79,11.59 l 15.69,3.3 c 20.55,4.37 35.54,10.79 44.57,19 9.03,8.21 13.63,19.6 13.63,33.62 M 1195.9,679.84 h 48.86 c 11.19,0 19.82,2.88 25.65,8.54 5.83,5.66 8.78,13.86 8.78,24.37 0,10.51 -3,18.67 -8.78,24.24 -5.78,5.57 -14.46,8.41 -25.65,8.41 h -48.86 z m 95.1,-8.94 c -10.8,-10.21 -26.2,-15.39 -45.76,-15.39 h -77 v 180.82 h 27.61 v -66.59 h 49.37 c 19.56,0 35,-5.18 45.76,-15.39 10.76,-10.21 16.29,-24.22 16.29,-41.6 0,-17.55 -5.48,-31.63 -16.29,-41.85 m -348.5,-15.39 v 180.82 h -26.6 V 692.85 c -3.43,10.07 -8,22.55 -13.68,37.22 l -40.77,106.26 h -23.16 l -0.07,-0.17 -41.27,-106.09 c -4.91,-13.1 -9.41,-25.42 -13.41,-36.71 v 143 H 756.91 V 655.51 h 37.92 l 37,96.15 c 7.43,19.46 13.57,36.33 18.24,50.15 5.48,-16.42 11.7,-34.15 18.48,-52.69 l 35.78,-93.61 z m 55.25,24.85 v 52.38 h 89.82 v 23.07 h -89.77 v 55.69 h 101.54 v 24.83 H 970.16 V 655.51 h 129.16 v 24.85 z M 555.55,741.1 v 95.23 h -26 V 812.66 A 65.33,65.33 0 0 1 505,833.33 c -9.78,4.68 -21.23,7 -34,7 -13,0 -24.79,-2.2 -35.11,-6.54 a 74.48,74.48 0 0 1 -27.13,-19.63 86.18,86.18 0 0 1 -17.72,-30 c -3.91,-11.32 -5.89,-24.19 -5.89,-38.25 0,-14.24 2,-27.22 6,-38.58 a 84.31,84.31 0 0 1 17.91,-30 76.11,76.11 0 0 1 27.69,-19.44 c 10.53,-4.3 22.58,-6.48 35.81,-6.48 22.07,0 40.61,5.81 55.1,17.28 14.34,11.64 23.06,27.29 25.94,46.51 v 0.3 h -28.41 v -0.21 c -2.51,-12 -8.57,-21.69 -18,-28.71 -9.43,-7.02 -21,-10.58 -34.4,-10.58 -17.9,0 -32.31,6.35 -42.85,18.9 -10.71,12.38 -16.14,29.53 -16.14,51 0,21.47 5.43,38.58 16.14,51 10.88,12.54 25.46,18.9 43.35,18.9 15.57,0 28.88,-4.92 39.58,-14.62 10.64,-9.47 16.31,-21.75 16.87,-36.51 H 476.52 V 741.1 Z m 69.45,24.31 31.26,-82.78 31.26,82.78 z m 46.88,-109.9 H 640.6 L 570,836.33 h 28.68 l 17.47,-46.85 h 80.15 l 17.48,46.85 h 28.67 z M 41.6,679.84 h 48.86 c 11.18,0 19.81,2.88 25.64,8.54 5.83,5.66 8.78,13.86 8.78,24.37 0,10.51 -2.95,18.67 -8.78,24.24 -5.83,5.57 -14.46,8.41 -25.64,8.41 H 41.6 Z m 95.12,-8.94 C 125.93,660.69 110.53,655.51 90.96,655.51 H 14 V 836.33 H 41.6 V 769.74 H 91 c 19.57,0 35,-5.18 45.76,-15.39 10.76,-10.21 16.24,-24.22 16.24,-41.6 0,-17.55 -5.48,-31.63 -16.29,-41.85 m 168.8,98.31 v 0.23 c -2,15 -8,26.66 -17.87,34.51 a 55.74,55.74 0 0 1 -34.79,11.85 c -17.22,0 -31.13,-6.31 -41.32,-18.77 -10.19,-12.46 -15.39,-29.66 -15.39,-51.11 0,-21.45 5.18,-38.64 15.39,-51.11 10.21,-12.47 24.07,-18.81 41.29,-18.81 12.88,0 23.95,3.35 32.89,10 8.94,6.65 15.17,16.56 18.51,29.61 l 0.06,0.2 h 27.87 l -0.06,-0.32 c -4,-21.07 -13.37,-37.23 -27.7,-48 -14.33,-10.62 -31.68,-16 -51.57,-16 a 89.38,89.38 0 0 0 -34.48,6.42 77.06,77.06 0 0 0 -27.25,19.25 84.38,84.38 0 0 0 -17.72,30 c -3.91,11.42 -5.9,24.46 -5.9,38.77 0,14.31 2,27.48 6,38.9 a 82.89,82.89 0 0 0 17.91,29.91 77.17,77.17 0 0 0 27.15,19.26 88.59,88.59 0 0 0 34.29,6.42 c 20.9,0 39.1,-6.24 54.11,-18.55 15.18,-12.31 24,-29.92 26.18,-52.34 v -0.29 z"
         id="path3696"
         inkscape:connector-curvature="0"
         style="fill:#117d10;fill-opacity:1" />
    </g>
  </g>
</svg>
