<?xml version="1.0" encoding="UTF-8" standalone="no"?>
<svg xmlns="http://www.w3.org/2000/svg" version="1.1" viewBox="0 0 122 37">
 <defs>
  <linearGradient id="a" x2="50%" x1="50%" y2="100%">
   <stop stop-color="#F6F6F6" offset="0"/>
   <stop stop-color="#989693" offset="1"/>
  </linearGradient>
  <linearGradient id="b" x2="50%" x1="50%" y2="100%">
   <stop stop-color="#EFEFEE" offset="0"/>
   <stop stop-color="#84827E" offset="1"/>
  </linearGradient>
 </defs>
 <path d="m5 0h117v37h-122v-37h5z" fill="#171A21"/>
 <path d="m73.372 16.281c-0.578 0.45-1.316 0.674-2.223 0.674-0.654 0-1.226-0.083-1.715-0.252-0.486-0.167-0.93-0.448-1.328-0.846l1.055-1.052c0.248 0.249 0.542 0.429 0.883 0.538 0.34 0.111 0.716 0.166 1.13 0.166 0.982 0 1.475-0.347 1.475-1.035 0-0.291-0.075-0.517-0.223-0.678-0.148-0.16-0.406-0.266-0.774-0.322l-0.469-0.072-0.539-0.068c-0.712-0.103-1.253-0.332-1.62-0.691-0.399-0.397-0.598-0.944-0.598-1.637 0-0.756 0.262-1.3676 0.784-1.8296 0.524-0.465 1.23-0.696 2.123-0.696 0.582 0 1.09 0.074 1.519 0.228 0.431 0.153 0.821 0.401 1.17 0.744l-1.029 1.0176c-0.236-0.225-0.494-0.377-0.778-0.455-0.285-0.0776-0.593-0.1176-0.931-0.1176-0.414 0-0.732 0.098-0.954 0.2976-0.223 0.199-0.334 0.449-0.334 0.753 0 0.218 0.086 0.416 0.257 0.588 0.173 0.175 0.426 0.287 0.762 0.334l0.502 0.069 0.482 0.071c0.374 0.055 0.687 0.134 0.941 0.235 0.254 0.099 0.471 0.238 0.65 0.41 0.43 0.405 0.644 0.995 0.644 1.77 0 0.789-0.289 1.406-0.862 1.856zm6.988-6.2924v6.8904h-1.63v-6.8904h-2.178v-1.447h5.986v1.447h-2.178zm5.607 6.8894v-8.3369h5.496v1.447h-3.862v1.9669h3.289v1.447h-3.289v2.029h3.862v1.447h-5.496zm13.931 0l-0.49-1.477h-2.963l-0.504 1.477h-1.697l3.033-8.3369h1.275l3.048 8.3369h-1.702zm-1.942-5.878l-1.054 3.028h2.072l-1.018-3.028zm12.454 5.878v-4.857l-1.58 3.162h-1.1l-1.6-3.162v4.857h-1.63v-8.3369h1.61l2.17 4.5069 2.16-4.5069h1.61v8.3369h-1.64zm5.17-8.5936c0.6 0 1.08 0.486 1.08 1.094 0 0.617-0.48 1.0966-1.08 1.0966s-1.08-0.4796-1.08-1.0966c0-0.608 0.48-1.094 1.08-1.094zm0 0.172c-0.48 0-0.87 0.411-0.87 0.922 0 0.52 0.39 0.9276 0.87 0.9276 0.49 0.005 0.88-0.4076 0.88-0.9226 0-0.516-0.39-0.927-0.88-0.927zm-0.2 1.5586h-0.2v-1.2196c0.1-0.014 0.2-0.029 0.35-0.029 0.18 0 0.3 0.039 0.38 0.092 0.07 0.054 0.11 0.136 0.11 0.253 0 0.161-0.11 0.256-0.24 0.296v0.009c0.11 0.019 0.18 0.117 0.2 0.296 0.03 0.19 0.06 0.264 0.08 0.3026h-0.2c-0.03-0.0386-0.06-0.1506-0.09-0.3106-0.03-0.156-0.1-0.213-0.26-0.213h-0.13v0.5236zm0-0.6766h0.14c0.16 0 0.29-0.057 0.29-0.208 0-0.107-0.08-0.213-0.29-0.213-0.07 0-0.11 0.004-0.14 0.01v0.411z" fill="url(#a)"/>
 <path d="m56.542 5c-4.371 0-7.926 3.555-7.926 7.925 0 0.035 0 0.07 0.002 0.103l-5.106 7.404c-0.827-0.036-1.657 0.108-2.444 0.432-0.347 0.141-0.672 0.315-0.977 0.515l-23.011-9.512c-0.387-1.791-1.612-3.372-3.428-4.13-2.945-1.226-6.339 0.172-7.567 3.118-1.227 2.944 0.172 6.338 3.117 7.565 1.426 0.594 2.998 0.597 4.428 0.01 0.329-0.136 0.639-0.304 0.935-0.491l23.062 9.534c0.398 1.774 1.618 3.332 3.418 4.081 2.945 1.229 6.34-0.171 7.566-3.113 0.318-0.768 0.467-1.575 0.445-2.38l7.306-5.212c0.06 0.002 0.12 0.003 0.18 0.003 4.371 0 7.925-3.557 7.925-7.927s-3.554-7.925-7.925-7.925m-46.831 12.199c-1.712-0.713-2.747-2.376-2.747-4.126 0-0.572 0.11-1.151 0.344-1.709 0.945-2.273 3.564-3.352 5.835-2.406 1.072 0.446 1.871 1.264 2.325 2.241l-2.641-1.092c-1.674-0.697-3.598 0.095-4.297 1.77-0.697 1.676 0.096 3.602 1.77 4.299l2.649 1.094c-1.055 0.385-2.197 0.365-3.238-0.071m37.681 10.731c-0.949 2.272-3.565 3.351-5.839 2.405-1.049-0.437-1.841-1.236-2.298-2.189l2.58 1.068c1.677 0.698 3.601-0.096 4.298-1.77 0.699-1.675-0.094-3.599-1.77-4.297l-2.667-1.103c1.029-0.39 2.199-0.404 3.292 0.05 1.102 0.458 1.957 1.319 2.41 2.421 0.454 1.102 0.452 2.317-0.006 3.415m9.15-9.723c-2.911 0-5.28-2.37-5.28-5.282 0-2.91 2.369-5.28 5.28-5.28s5.281 2.37 5.281 5.28c0 2.912-2.37 5.282-5.281 5.282m0.008-1.324c-2.189 0-3.965-1.775-3.965-3.966s1.776-3.968 3.965-3.968c2.191 0 3.968 1.777 3.968 3.968s-1.777 3.966-3.968 3.966" fill="url(#b)"/>
</svg>
